<?xml version="1.0" encoding="utf-8"?>
<!-- Generator: Adobe Illustrator 15.1.0, SVG Export Plug-In . SVG Version: 6.00 Build 0)  -->
<!DOCTYPE svg PUBLIC "-//W3C//DTD SVG 1.1//EN" "http://www.w3.org/Graphics/SVG/1.1/DTD/svg11.dtd">
<svg version="1.1" id="Layer_1" xmlns="http://www.w3.org/2000/svg" xmlns:xlink="http://www.w3.org/1999/xlink" x="0px" y="0px"
	 width="884.529px" height="301.599px" viewBox="0 149.686 884.529 301.599" enable-background="new 0 149.686 884.529 301.599"
	 xml:space="preserve">
<title>logo_name</title>
<path fill="#FFFFFF" d="M365.13,369.513c1.541-0.068,3.063-0.357,4.521-0.857v10.912c-3.088,1.168-6.366,1.75-9.666,1.715
	c-5.737,0.545-11.198-2.576-13.642-7.795c-7.266,5.881-16.378,9.002-25.724,8.809c-12.395,0-23.854-6.781-23.854-20.891
	c0-17.461,16.214-22.84,30.401-22.84c5.977,0.088,11.93,0.768,17.773,2.027v-2.418c0-8.496-6.236-14.498-17.929-14.498
	c-8.459,0.012-16.823,1.791-24.555,5.223v-13.953c8.409-2.887,17.225-4.414,26.114-4.521c19.333,0,31.181,9.197,31.181,29.855
	v24.477c-0.229,2.443,1.565,4.611,4.009,4.84C364.219,369.64,364.681,369.611,365.13,369.513z M312.435,360.236
	c0.482,6.094,5.814,10.645,11.909,10.16c0.293-0.023,0.585-0.057,0.875-0.104c7.347,0.115,14.439-2.689,19.722-7.795v-11.771
	c-4.873-1.033-9.831-1.607-14.811-1.715c-8.575,0.078-17.695,2.729-17.695,11.303V360.236z"/>
<path fill="#FFFFFF" d="M413.617,310.269c7.356-0.168,14.623,1.635,21.046,5.223v13.953c-5.57-3.752-12.146-5.736-18.864-5.691
	c-12.399-1.033-23.289,8.18-24.322,20.58c-1.034,12.398,8.179,23.287,20.578,24.322c1.246,0.104,2.499,0.104,3.744,0
	c6.961-0.025,13.803-1.824,19.877-5.223v14.031c-7.082,3.256-14.813,4.855-22.606,4.676c-18.984,1.301-35.428-13.035-36.728-32.02
	c-0.077-1.123-0.099-2.246-0.065-3.371c-0.633-19.535,14.69-35.885,34.226-36.518C411.542,310.199,412.581,310.21,413.617,310.269z"
	/>
<path fill="#FFFFFF" d="M513.242,369.513c1.539-0.068,3.063-0.357,4.52-0.857v10.912c-3.088,1.168-6.365,1.75-9.666,1.715
	c-5.736,0.545-11.197-2.576-13.641-7.795c-7.268,5.881-16.379,9.002-25.725,8.809c-12.395,0-23.854-6.781-23.854-20.891
	c0-17.461,16.215-22.84,30.4-22.84c5.979,0.088,11.932,0.768,17.773,2.027v-2.418c0-8.496-6.236-14.498-17.928-14.498
	c-8.461,0.012-16.824,1.791-24.555,5.223v-13.953c8.408-2.887,17.223-4.414,26.113-4.521c19.332,0,31.182,9.197,31.182,29.855
	v24.477c-0.23,2.443,1.564,4.611,4.008,4.84C512.33,369.64,512.791,369.611,513.242,369.513z M460.544,360.236
	c0.482,6.094,5.814,10.645,11.908,10.16c0.295-0.023,0.586-0.057,0.877-0.104c7.346,0.115,14.439-2.689,19.721-7.795v-11.771
	c-4.871-1.033-9.83-1.607-14.811-1.715c-8.652,0.078-17.695,2.729-17.695,11.303V360.236z"/>
<path fill="#FFFFFF" d="M597.664,280.88v99.467h-13.719v-10.834c-6.158,8.174-15.883,12.877-26.115,12.627
	c-19.848-1.307-34.875-18.457-33.568-38.305c1.188-18.023,15.545-32.379,33.568-33.566c9.375-0.316,18.393,3.607,24.555,10.678
	V280.88h15.592L597.664,280.88z M560.558,323.599c-12.484,0.025-22.586,10.168-22.561,22.652
	c0.027,12.449,10.111,22.533,22.561,22.559c9.488,0.074,18.08-5.592,21.748-14.342v-16.605
	C578.515,329.226,569.99,323.634,560.558,323.599z"/>
<path fill="#FFFFFF" d="M646.929,310.269c27.129,0,36.482,21.904,32.117,41.627h-51.293c1.715,12.238,13.643,17.305,26.113,17.305
	c7.469,0.023,14.848-1.629,21.594-4.832v13.096c-7.729,3.299-16.076,4.895-24.477,4.676c-20.893,0-38.977-11.926-38.977-35.936
	c-0.953-18.875,13.578-34.949,32.453-35.9C645.283,310.263,646.107,310.251,646.929,310.269z M647.63,322.896
	c-10.258-0.787-19.215,6.891-20.002,17.148c-0.014,0.156-0.023,0.313-0.031,0.471h37.807c0.918-8.822-5.49-16.717-14.311-17.633
	c-1.152-0.121-2.313-0.115-3.461,0.014H647.63z"/>
<path fill="#FFFFFF" d="M694.558,380.347V312.14h13.486v8.496c5.809-6.48,14.061-10.24,22.762-10.367
	c8.559-0.539,16.727,3.648,21.281,10.912c6.156-6.705,14.758-10.639,23.854-10.912c13.811-0.539,25.441,10.217,25.98,24.027
	c0.045,1.139,0.012,2.277-0.1,3.412v42.639h-15.59v-42.172c0.738-7.152-4.461-13.547-11.613-14.285
	c-0.623-0.064-1.248-0.084-1.873-0.059c-6.715,0.434-12.9,3.799-16.916,9.199c0,1.559,0,3.117,0,4.678v42.639h-15.59v-42.172
	c0.738-7.152-4.461-13.547-11.613-14.285c-0.623-0.064-1.248-0.084-1.873-0.059c-7.311,0.592-13.959,4.461-18.086,10.523v46.07
	h-15.59L694.558,380.347z"/>
<path fill="#FFFFFF" d="M868.939,312.14h15.59l-31.959,77.406c-7.406,17.773-17.072,23.385-27.439,23.385
	c-3.023-0.039-6.033-0.432-8.965-1.168v-12.941c2.248,0.686,4.588,1.027,6.938,1.014c7.406,0,12.939-5.223,16.916-15.59l1.402-3.43
	l-32.428-68.754h16.604l23.387,51.447L868.939,312.14z"/>
<path fill="#FFFFFF" d="M316.956,161.457v38.977c5.814-5.932,13.754-9.299,22.06-9.354c14.655-0.878,27.247,10.29,28.125,24.944
	c0.058,0.961,0.063,1.924,0.016,2.885v42.172h-15.591v-40.224c0.875-8.133-5.009-15.435-13.142-16.31
	c-0.813-0.088-1.632-0.108-2.449-0.06c-7.817,0.465-14.916,4.713-19.021,11.381v45.212h-15.59v-99.624H316.956L316.956,161.457z"/>
<path fill="#FFFFFF" d="M408.706,168.395v24.321h24.711v13.33h-24.711v31.181c0,8.964,4.131,11.927,12.94,11.927
	c4.732-0.012,9.418-0.938,13.797-2.729v13.096c-5.896,2.005-12.09,3.007-18.318,2.962c-11.451,1.417-21.882-6.718-23.299-18.168
	c-0.176-1.42-0.205-2.855-0.087-4.282V205.89h-12.473v-13.33h12.239v-20.58L408.706,168.395z"/>
<path fill="#FFFFFF" d="M452.906,260.924v-68.208h13.486v8.497c5.807-6.481,14.061-10.24,22.762-10.368
	c8.559-0.539,16.725,3.649,21.281,10.914c6.154-6.705,14.756-10.64,23.854-10.914c13.809-0.539,25.441,10.218,25.98,24.027
	c0.043,1.139,0.01,2.278-0.1,3.412v42.64h-15.592v-42.172c0.738-7.152-4.461-13.548-11.613-14.286
	c-0.621-0.064-1.248-0.083-1.873-0.058c-6.715,0.434-12.9,3.797-16.914,9.198c0,1.559,0,3.118,0,4.677v42.64h-15.592v-42.172
	c0.738-7.152-4.461-13.548-11.613-14.286c-0.621-0.064-1.248-0.083-1.873-0.058c-7.309,0.592-13.959,4.461-18.084,10.523v46.07
	h-15.592L452.906,260.924z"/>
<rect x="582.462" y="161.379" fill="#FFFFFF" width="15.201" height="99.468"/>
<path fill="#FFFFFF" d="M120.359,149.686h-1.247L0,162.158v218.267l119.112,70.859l119.112-70.859V162.158L120.359,149.686z
	 M222.633,371.46l-103.521,61.584L15.59,371.46v-89.489l103.054,61.348v11.148l-70.703-42.096v10.758l71.015,42.641v11.381
	l-70.937-42.25v10.758l71.015,42.639l0,0l71.639-42.873v-10.836l0,0v-35.234l31.961-19.099v90.972V371.46z M222.633,268.875
	l-28.453,16.682l0,0l-13.096,7.795l-62.362-37.105v10.757l53.319,31.728h-0.467l-1.169,0.701l-7.795,4.443l-43.965-26.192v10.758
	l34.689,20.657l-8.185,5.457l0,0l-26.192-15.59v10.756l17.228,10.135l-17.54,10.523L16.059,269.421l102.664-61.739l0,0
	L222.633,268.875z M222.633,258.04l-104.067-61.349l0,0L15.668,257.962v-81.85l103.521-10.836l103.521,10.836v81.928H222.633z"/>
</svg>
