<?xml version="1.0" encoding="utf-8"?>
<!-- Generator: Adobe Illustrator 15.1.0, SVG Export Plug-In . SVG Version: 6.00 Build 0)  -->
<!DOCTYPE svg PUBLIC "-//W3C//DTD SVG 1.1//EN" "http://www.w3.org/Graphics/SVG/1.1/DTD/svg11.dtd">
<svg version="1.1" id="Layer_1" xmlns="http://www.w3.org/2000/svg" xmlns:xlink="http://www.w3.org/1999/xlink" x="0px" y="0px"
	 width="17px" height="17px" viewBox="0 0 17 17" enable-background="new 0 0 17 17" xml:space="preserve">
<path d="M16.979,15.557l-5.207-5.207c0.783-1.072,1.25-2.39,1.25-3.82c0-3.59-2.91-6.5-6.5-6.5c-3.59,0-6.5,2.91-6.5,6.5
	c0,3.59,2.91,6.5,6.5,6.5c1.438,0,2.764-0.473,3.837-1.264l5.205,5.205L16.979,15.557z M6.521,11.029c-2.481,0-4.5-2.021-4.5-4.5
	c0-2.481,2.019-4.5,4.5-4.5s4.5,2.019,4.5,4.5S9.002,11.029,6.521,11.029z"/>
</svg>
